<svg xmlns="http://www.w3.org/2000/svg" viewBox="0 0 22.8 22.7"><title>Untitled-1</title><path d="M17.5,17.3H15.5c-.7,0-.9-.4-.5-.9L17,12.8a1.8,1.8,0,0,1,1.6-.9h4.1c.7,0,.9.4.5.9l-2.1,3.6a1.8,1.8,0,0,1-1.6.9Z" transform="translate(-0.6 -0.6)" style="fill:#b33664"/><path d="M20.7,23.4H18.5a1.7,1.7,0,0,1-1.5-.9l-2.1-3.7c-.3-.5-.1-.9.5-.9h4.3a1.7,1.7,0,0,1,1.5.9l2.1,3.6c.3.6.1.9-.5.9Z" transform="translate(-0.6 -0.6)" style="fill:#b33664"/><path d="M.6,5.5a1.7,1.7,0,0,1,.2-.9l2-3.5c.3-.6.7-.6,1.1,0L6.1,4.7a1.6,1.6,0,0,1,0,1.6L3.9,10.2a.5.5,0,0,1-.9,0L.8,6.4A1.5,1.5,0,0,1,.6,5.5Z" transform="translate(-0.6 -0.6)" style="fill:#76b3ba"/><path d="M9.8,11.6a1.7,1.7,0,0,1-.2,1l-2,3.5c-.3.6-.8.6-1.1,0l-2-3.5a1.8,1.8,0,0,1,0-1.9l2-3.5.3-.3a.4.4,0,0,1,.6,0l.3.4,1.9,3.4A1.7,1.7,0,0,1,9.8,11.6Z" transform="translate(-0.6 -0.6)" style="fill:#76b3ba"/><path d="M10.6,5.8h2a1.7,1.7,0,0,1,1.6.9l2.1,3.7c.3.5.1.9-.5.9H11.6a1.6,1.6,0,0,1-1.4-.8L8,6.7c-.3-.5-.1-.9.5-.9Z" transform="translate(-0.6 -0.6)" style="fill:#b1c546"/><path d="M10.6,17.3H8.5c-.6,0-.8-.4-.5-.9l2.1-3.7a1.7,1.7,0,0,1,1.5-.8h4.2c.6,0,.8.4.5.9l-2.1,3.7a1.7,1.7,0,0,1-1.5.9Z" transform="translate(-0.6 -0.6)" style="fill:#b1c546"/></svg>